<svg xmlns="http://www.w3.org/2000/svg" xmlns:xlink="http://www.w3.org/1999/xlink" style="width: 100%; height: 100%" width="20"  height="24" ><defs><svg xmlns="http://www.w3.org/2000/svg" xlink="http://www.w3.org/1999/xlink" viewBox="0 0 20 24" id="svg3739841779"><g transform="translate(0.057 0)" id="ss3739841779_1"><path d="M 18.909 8.188 C 17.309 9.176 16.322 10.871 16.322 12.753 C 16.322 14.871 17.591 16.8 19.52 17.6 C 19.144 18.824 18.579 19.953 17.874 20.988 C 16.839 22.447 15.757 23.953 14.158 23.953 C 12.559 23.953 12.088 23.012 10.207 23.012 C 8.372 23.012 7.714 24 6.209 24 C 4.704 24 3.669 22.635 2.493 20.941 C 0.941 18.588 0.047 15.859 -0 12.988 C -0 8.329 3.01 5.835 6.021 5.835 C 7.62 5.835 8.937 6.871 9.925 6.871 C 10.865 6.871 12.37 5.788 14.158 5.788 C 16.039 5.741 17.827 6.635 18.909 8.188 Z M 13.311 3.812 C 14.111 2.871 14.534 1.694 14.581 0.471 C 14.581 0.329 14.581 0.141 14.534 -0 C 13.17 0.141 11.9 0.8 11.006 1.835 C 10.207 2.729 9.736 3.859 9.689 5.082 C 9.689 5.224 9.689 5.365 9.736 5.506 C 9.831 5.506 9.972 5.553 10.066 5.553 C 11.336 5.459 12.512 4.8 13.311 3.812 Z" fill="#FFFFFF"></path></g></svg></defs><use href="#svg3739841779"></use></svg>