<svg xmlns="http://www.w3.org/2000/svg" xmlns:xlink="http://www.w3.org/1999/xlink" style="width: 100%; height: 100%" width="39"  height="48" ><defs><svg xmlns="http://www.w3.org/2000/svg" xlink="http://www.w3.org/1999/xlink" viewBox="0 0 39 48" id="svg1749435188"><path d="M 26.322 27.203 C 26.527 26.633 26.36 26.454 25.775 26.64 L 25.775 26.633 C 23.723 27.286 20.166 28.182 16.075 27.382 C 15.219 27.209 15.271 26.556 16.139 26.512 C 19.381 26.352 24.45 25.622 27.184 22.826 C 29.175 20.788 30.24 17.671 31.425 14.201 C 32.8 10.175 34.337 5.673 37.675 1.83 C 37.755 1.738 37.85 1.639 37.947 1.538 C 38.62 0.839 39.428 0 36.44 0 C 21.349 0 15.876 12.119 6.679 32.487 C 5.053 36.089 3.31 39.949 1.376 44.045 C 1.212 44.393 1.046 44.725 0.89 45.039 C 0.444 45.936 0.073 46.68 0.006 47.206 C -0.045 47.642 0.219 48 0.74 48 C 2.541 47.982 4.361 44.813 6.049 41.874 C 6.813 40.543 7.55 39.259 8.246 38.337 C 9.14 37.153 10.015 36.603 11.122 36.315 C 11.992 36.084 12.96 35.976 13.987 35.86 C 15.154 35.729 16.398 35.59 17.663 35.253 C 22.662 33.922 25.247 30.223 26.322 27.203 Z M 35.893 43.489 C 35.893 45.972 33.867 47.987 31.371 47.987 C 28.875 47.987 26.849 45.972 26.849 43.489 C 26.849 41.006 28.875 38.99 31.371 38.99 C 33.867 38.99 35.893 41.006 35.893 43.489 Z" fill="#FFFFFF"></path></svg></defs><use href="#svg1749435188"></use></svg>