<svg xmlns="http://www.w3.org/2000/svg" xmlns:xlink="http://www.w3.org/1999/xlink" style="width: 100%; height: 100%" width="28"  height="24" ><defs><svg xmlns="http://www.w3.org/2000/svg" xlink="http://www.w3.org/1999/xlink" viewBox="0 0 28 24" id="svg1658283198"><path d="M 27.248 11.124 L 21.334 0.858 C 21.024 0.343 20.44 -0 19.821 -0 L 7.957 -0 C 7.338 -0 6.754 0.343 6.444 0.893 L 0.53 11.124 C 0.22 11.674 0.22 12.326 0.53 12.875 L 6.444 23.142 C 6.754 23.691 7.338 24.034 7.957 24.034 L 19.821 24.034 C 20.44 24.034 21.024 23.691 21.334 23.142 L 27.248 12.875 C 27.558 12.326 27.558 11.639 27.248 11.124 Z M 10.571 5.356 L 17.208 5.356 C 18.033 5.356 18.721 6.043 18.721 6.867 C 18.721 7.691 18.033 8.378 17.208 8.378 L 10.571 8.378 C 9.746 8.378 9.058 7.691 9.058 6.867 C 9.058 6.009 9.746 5.356 10.571 5.356 Z M 15.729 18.678 L 12.049 18.678 C 11.224 18.678 10.536 17.991 10.536 17.167 C 10.536 16.343 11.224 15.657 12.049 15.657 L 15.729 15.657 C 16.554 15.657 17.242 16.343 17.242 17.167 C 17.207 18.026 16.554 18.678 15.729 18.678 Z M 19.89 13.494 L 7.889 13.494 C 7.063 13.494 6.376 12.807 6.376 11.983 C 6.376 11.159 7.063 10.472 7.889 10.472 L 19.89 10.472 C 20.715 10.472 21.403 11.159 21.403 11.983 C 21.403 12.807 20.715 13.494 19.89 13.494 Z" fill="#FFFFFF"></path></svg></defs><use href="#svg1658283198"></use></svg>