<svg xmlns="http://www.w3.org/2000/svg" xmlns:xlink="http://www.w3.org/1999/xlink" style="width: 100%; height: 100%" width="22"  height="24" ><defs><svg xmlns="http://www.w3.org/2000/svg" xlink="http://www.w3.org/1999/xlink" viewBox="0 0 22 24" id="svg329430451"><path d="M 14.897 2.853 C 14.897 2.853 14.627 2.93 14.183 3.065 C 14.106 2.814 13.991 2.525 13.836 2.217 C 13.335 1.253 12.583 0.733 11.695 0.733 C 11.637 0.733 11.58 0.733 11.502 0.752 C 11.483 0.713 11.445 0.694 11.425 0.655 C 11.04 0.231 10.538 0.039 9.94 0.058 C 8.783 0.096 7.626 0.925 6.7 2.41 C 6.044 3.451 5.543 4.761 5.408 5.783 C 4.077 6.188 3.151 6.477 3.132 6.496 C 2.457 6.708 2.437 6.728 2.36 7.364 C 2.244 7.846 0.489 21.436 0.489 21.436 L 15.071 23.961 L 15.071 2.814 C 14.994 2.834 14.936 2.834 14.897 2.853 Z M 11.522 3.894 C 10.75 4.125 9.902 4.395 9.072 4.646 C 9.304 3.74 9.767 2.834 10.307 2.236 C 10.519 2.024 10.808 1.773 11.136 1.619 C 11.464 2.313 11.541 3.258 11.522 3.894 Z M 9.96 0.829 C 10.23 0.829 10.461 0.887 10.654 1.002 C 10.345 1.157 10.037 1.407 9.747 1.696 C 9.014 2.487 8.455 3.72 8.224 4.896 C 7.529 5.108 6.835 5.32 6.198 5.513 C 6.603 3.682 8.166 0.887 9.96 0.829 Z M 7.703 11.431 C 7.78 12.665 11.04 12.935 11.232 15.846 C 11.367 18.14 10.017 19.701 8.069 19.817 C 5.716 19.971 4.424 18.583 4.424 18.583 L 4.925 16.463 C 4.925 16.463 6.218 17.446 7.259 17.369 C 7.934 17.33 8.185 16.771 8.166 16.386 C 8.069 14.766 5.408 14.863 5.234 12.202 C 5.08 9.986 6.546 7.73 9.786 7.518 C 11.04 7.441 11.676 7.749 11.676 7.749 L 10.943 10.525 C 10.943 10.525 10.114 10.14 9.13 10.217 C 7.703 10.313 7.684 11.219 7.703 11.431 Z M 12.293 3.663 C 12.293 3.084 12.216 2.255 11.946 1.561 C 12.833 1.735 13.258 2.718 13.451 3.316 C 13.103 3.412 12.718 3.528 12.293 3.663 Z" fill="#FFFFFF"></path><path d="M 15.553 23.884 L 21.609 22.381 C 21.609 22.381 19.005 4.781 18.986 4.665 C 18.967 4.549 18.87 4.472 18.774 4.472 C 18.678 4.472 16.98 4.434 16.98 4.434 C 16.98 4.434 15.939 3.431 15.553 3.046 Z" fill="#FFFFFF"></path></svg></defs><use href="#svg329430451"></use></svg>