<svg xmlns="http://www.w3.org/2000/svg" xmlns:xlink="http://www.w3.org/1999/xlink" style="width: 100%; height: 100%" width="24"  height="24" ><defs><svg xmlns="http://www.w3.org/2000/svg" xlink="http://www.w3.org/1999/xlink" viewBox="0 0 24 24" id="svg474605200"><path d="M 0.609 13.694 L 0.667 4.969 C 0.678 3.389 1.782 2.035 3.307 1.733 L 11.734 0.062 C 13.759 -0.339 15.638 1.246 15.625 3.342 L 15.567 12.07 C 15.556 13.649 14.451 15.002 12.926 15.305 L 4.499 16.975 C 2.475 17.377 0.595 15.792 0.609 13.694 Z" fill="#FFFFFF" opacity="0.2"></path><path d="M 4.738 17.176 L 4.796 8.449 C 4.806 6.871 5.911 5.517 7.436 5.215 L 15.863 3.545 C 17.888 3.143 19.767 4.727 19.753 6.825 L 19.695 15.552 C 19.685 17.131 18.58 18.484 17.055 18.787 L 8.628 20.457 C 6.603 20.858 4.724 19.274 4.738 17.177 Z" fill="#FFFFFF" opacity="0.5"></path><path d="M 8.867 20.657 L 8.925 11.93 C 8.935 10.351 10.04 8.998 11.565 8.695 L 19.992 7.025 C 22.017 6.623 23.896 8.208 23.882 10.305 L 23.824 19.032 C 23.814 20.612 22.709 21.965 21.184 22.267 L 12.757 23.938 C 10.732 24.339 8.853 22.754 8.866 20.657 Z" fill="#FFFFFF"></path></svg></defs><use href="#svg474605200"></use></svg>